# Aspose.3D Wavefront OBJ Exporter
# Copyright 2004-2019 Aspose Pty Ltd.
# File created: 2/27/2020 5:06:10 PM


#
# object node_id5
#

v -0.13102717697620392 -0.25600001978874244 0.27064072937218152
v -0.13008679816471424 0.2358889348491422 0.27064072937218152
v -0.13102717697620392 0.23017390772222424 0.27064072937218152
v -0.12531215424512254 0.24641464640865696 0.27064072937218152
v -0.12816966561066324 0.24069964979931856 0.27064072937218152
v -0.11286938703215732 0.25600000452995264 0.27064072937218152
v -0.1176439714020665 0.25408292069866168 0.27064072937218152
v 0.2019987851381302 -0.25600001978874244 0.27064072937218152
v 0.20105840632664052 0.25600000452995264 0.27064072937218152
v -0.13102717697620392 0.23017390772222424 0.24135923534186876
v -0.13008679816471424 0.2358889348491422 0.24135923534186876
v -0.13102717697620392 -0.25600001978874244 0.24135923534186876
v -0.12816966561066324 0.24069964979931856 0.24135923534186876
v -0.12531215424512254 0.24641464640865696 0.24135923534186876
v -0.1176439714020665 0.25408292069866168 0.24135923534186876
v -0.11286938703215732 0.25600000452995264 0.24135923534186876
v 0.20105840632664052 0.25600000452995264 0.24135923534186876
v 0.2019987851381302 -0.25600001978874244 0.24135923534186876
v -0.13102717697620392 0.23017390772222424 0.27064072937218152
v -0.13008679816471424 0.2358889348491422 0.24135923534186876
v -0.13102717697620392 0.23017390772222424 0.24135923534186876
v -0.13008679816471424 0.2358889348491422 0.27064072937218152
v -0.12816966561066324 0.24069964979931856 0.24135923534186876
v -0.12816966561066324 0.24069964979931856 0.27064072937218152
v -0.12531215424512254 0.24641464640865696 0.24135923534186876
v -0.12531215424512254 0.24641464640865696 0.27064072937218152
v -0.1176439714020665 0.25408292069866168 0.24135923534186876
v -0.1176439714020665 0.25408292069866168 0.27064072937218152
v -0.11286938703215732 0.25600000452995264 0.24135923534186876
v -0.11286938703215732 0.25600000452995264 0.27064072937218152
v 0.20105840632664052 0.25600000452995264 0.24135923534186876
v 0.20105840632664052 0.25600000452995264 0.27064072937218152
v 0.20105840632664052 0.25600000452995264 0.27064072937218152
v 0.2019987851381302 -0.25600001978874244 0.24135923534186876
v 0.20105840632664052 0.25600000452995264 0.24135923534186876
v 0.2019987851381302 -0.25600001978874244 0.27064072937218152
v 0.2019987851381302 -0.25600001978874244 0.27064072937218152
v -0.13102717697620392 -0.25600001978874244 0.24135923534186876
v 0.2019987851381302 -0.25600001978874244 0.24135923534186876
v -0.13102717697620392 -0.25600001978874244 0.27064072937218152
v -0.13102717697620392 -0.25600001978874244 0.27064072937218152
v -0.13102717697620392 -0.25600001978874244 0.24135923534186876
# 42 vertices

vn 0 0 1
vn 0 0 1
vn 0 0 1
vn 0 0 1
vn 0 0 1
vn 0 0 1
vn 0 0 1
vn 0 0 1
vn 0 0 1
vn 0 0 -1
vn 0 0 -1
vn 0 0 -1
vn 0 0 -1
vn 0 0 -1
vn 0 0 -1
vn 0 0 -1
vn 0 0 -1
vn 0 0 -1
vn -0.992199182510376 0.12466292828321456 0
vn -0.91953349113464352 0.39301168918609616 0
vn -0.992199182510376 0.12466292828321456 0
vn -0.91953349113464352 0.39301168918609616 0
vn -0.82338052988052368 0.56748968362808224 0
vn -0.82338052988052368 0.56748968362808224 0
vn -0.66996610164642336 0.74239176511764528 0
vn -0.66996610164642336 0.74239176511764528 0
vn -0.394649475812912 0.91883176565170288 0
vn -0.394649475812912 0.91883176565170288 0
vn -0.1247234046459198 0.9921915531158448 0
vn -0.1247234046459198 0.9921915531158448 0
vn 0 1 0
vn 0 1 0
vn 0.9999960064888 0.00282374420203268 0
vn 0.9999960064888 0.00282374420203268 0
vn 0.9999960064888 0.00282374420203268 0
vn 0.9999960064888 0.00282374420203268 0
vn 0 -1 0
vn 0 -1 0
vn 0 -1 0
vn 0 -1 0
vn -1 0 0
vn -1 0 0
# 42 vertex normals

g node_id5
usemtl mat_63147732
s 1
f 1//1 2//2 3//3
f 2//2 4//4 5//5
f 4//4 6//6 7//7
f 6//6 8//8 9//9
f 8//8 2//2 1//1
f 2//2 6//6 4//4
f 2//2 8//8 6//6
f 10//10 11//11 12//12
f 13//13 14//14 11//11
f 15//15 16//16 14//14
f 17//17 18//18 16//16
f 12//12 11//11 18//18
f 14//14 16//16 11//11
f 16//16 18//18 11//11
f 19//19 20//20 21//21
f 19//19 22//22 20//20
f 22//22 23//23 20//20
f 22//22 24//24 23//23
f 24//24 25//25 23//23
f 24//24 26//26 25//25
f 26//26 27//27 25//25
f 26//26 28//28 27//27
f 28//28 29//29 27//27
f 28//28 30//30 29//29
f 30//30 31//31 29//29
f 30//30 32//32 31//31
f 33//33 34//34 35//35
f 33//33 36//36 34//34
f 37//37 38//38 39//39
f 37//37 40//40 38//38
f 41//41 21//21 42//42
f 41//41 19//19 21//21
#32 polygons

